<svg width="292" height="317" viewBox="0 0 292 317" fill="none" xmlns="http://www.w3.org/2000/svg">
<path opacity="0.6" d="M287.324 106.283C283.309 100.882 277.007 97.399 269.916 97.399C262.266 97.399 255.533 101.452 251.601 107.593C249.639 106.484 247.388 105.852 244.995 105.852C238.482 105.852 233.027 110.526 231.58 116.809C231.402 117.579 231.986 118.316 232.75 118.316H248.032H258.677H277.012H290.461C291.193 118.316 291.751 117.64 291.647 116.889C291.101 112.934 289.573 109.308 287.324 106.283Z" fill="#FCFDFF"/>
<path opacity="0.6" d="M196.913 248.466C193.847 244.342 189.034 241.682 183.62 241.682C177.778 241.682 172.637 244.777 169.635 249.467C168.136 248.62 166.418 248.137 164.59 248.137C159.227 248.137 154.803 252.288 154.144 257.655H166.909H175.037H189.038H200.33C200.067 254.211 198.834 251.051 196.913 248.466Z" fill="#FCFDFF"/>
<path d="M61.0436 62.8065C52.1835 62.3636 44.5662 68.0526 41.7464 76.12C39.2039 74.1839 36.0749 73.0263 32.6768 73.0263C27.3185 73.0263 22.6078 75.875 19.8639 80.1852C18.2808 79.6131 16.5858 79.286 14.8142 79.286C7.76974 79.286 1.84944 84.2077 0.0513874 90.909C-0.190659 91.8097 0.452086 92.7054 1.35518 92.7054H17.7946H29.9525H42.9742H47.5595H76.3589C76.8647 92.7054 77.338 92.4197 77.5631 91.9508C78.9672 89.022 79.7089 85.6931 79.5747 82.1705C79.1787 71.8146 71.04 63.3064 61.0436 62.8065Z" fill="#FCFDFF"/>
<path d="M233.435 6.66549C232.519 6.66549 231.629 6.78413 230.779 7.00526C227.613 2.74693 222.644 0 217.052 0C211.02 0 205.711 3.1955 202.61 8.0386C201.063 7.16321 199.288 6.66549 197.401 6.66549C192.089 6.66549 187.67 10.6079 186.716 15.8196C186.652 16.1692 186.909 16.4942 187.253 16.4942H199.796H208.189H222.647H234.308H243.583C243.927 16.4942 244.184 16.1685 244.12 15.8196C243.166 10.6072 238.747 6.66549 233.435 6.66549Z" fill="#FCFDFF"/>
<path d="M227.248 185.402C225.954 185.402 224.671 185.45 223.402 185.543C215.819 167.911 197.843 155.512 176.87 155.512C175.047 155.512 173.246 155.608 171.473 155.791C164.159 133.355 146.011 128.917 126.491 129.018C103.412 129.139 83.9593 144.031 77.9956 164.511C76.6193 164.402 75.228 164.343 73.8225 164.343C45.9988 164.343 23.4437 194.389 23.4437 221.304C23.4437 222.627 23.4993 223.937 23.6071 225.232C23.7 226.348 24.6004 227.207 25.6825 227.207H99.6211H123.832H128.837H153.361H179.358H224.903H272.128C273.594 227.207 274.616 225.67 274.06 224.266C266.648 205.539 248.485 185.402 227.248 185.402Z" fill="#FCFDFF"/>
<mask id="mask0_109_218" style="mask-type:luminance" maskUnits="userSpaceOnUse" x="23" y="129" width="252" height="99">
<path d="M227.248 185.403C225.954 185.403 224.671 185.45 223.402 185.543C215.819 167.911 197.843 155.512 176.87 155.512C175.047 155.512 173.246 155.608 171.473 155.791C163.787 132.499 146.147 129.019 126.491 129.019C103.412 129.019 83.9593 144.031 77.9956 164.511C76.6193 164.402 75.228 164.343 73.8225 164.343C45.9988 164.343 23.4437 194.39 23.4437 221.304C23.4437 222.627 23.4993 223.937 23.6071 225.232C23.7 226.348 24.6004 227.207 25.6825 227.207H99.6211H123.832H128.837H153.361H179.358H224.903H272.128C273.594 227.207 274.616 225.67 274.06 224.266C266.648 205.539 248.485 185.403 227.248 185.403Z" fill="white"/>
</mask>
<g mask="url(#mask0_109_218)">
<g opacity="0.31">
<path d="M127.002 186.239H91.4444L90.7651 183.112H126.323L127.002 186.239Z" fill="#C4C4C4"/>
<path d="M125.057 202.488H89.4992L88.8199 199.36H124.378L125.057 202.488Z" fill="#C4C4C4"/>
<path d="M122.036 218.736H86.4774L85.798 215.609H121.356L122.036 218.736Z" fill="#C4C4C4"/>
<path d="M71.1824 317.841L68.1226 316.698L91.1746 174.214H94.4195L71.1824 317.841Z" fill="#C4C4C4"/>
<path d="M106.74 317.841L103.68 316.698L126.732 174.214H129.977L106.74 317.841Z" fill="#C4C4C4"/>
</g>
</g>
<path d="M165.591 148.556L162.855 163.97L171.364 164.577L172.48 150.38L165.591 148.556Z" fill="#DEAFA4"/>
<path d="M174.639 162.047L177.806 165.918L185.44 168.605C186.226 168.882 186.824 169.552 187.028 170.385L187.324 171.591C187.471 172.191 186.994 172.757 186.4 172.69L161.337 169.738C160.52 169.645 159.95 168.859 160.088 168.021L162.704 160.837L166.418 162.127C167.65 162.681 169.052 162.66 170.268 162.07L171.688 161.381C172.704 160.887 173.914 161.16 174.639 162.047Z" fill="#282140"/>
<path d="M155.269 169.645L152.532 185.058L161.041 185.666L162.157 171.468L155.269 169.645Z" fill="#DEAFA4"/>
<path d="M171.518 55.0762C173.576 52.9447 173.576 49.4889 171.518 47.3574C169.459 45.2259 166.121 45.2259 164.063 47.3574C162.004 49.4889 162.004 52.9447 164.063 55.0762C166.121 57.2077 169.459 57.2077 171.518 55.0762Z" fill="#DEAFA4"/>
<path d="M170.305 54.1424H165.477V63.5942H170.305V54.1424Z" fill="#DEAFA4"/>
<path d="M144.141 70.1719C144.141 70.1719 144.263 70.5706 151.491 76.2884L162.542 85.3435L163.848 59.0831H170.412V89.3119C170.412 91.6489 169.126 93.7809 167.097 94.8058L166.143 95.288C164.335 96.2014 162.201 96.0982 160.483 95.0143L141.996 83.3519L144.141 70.1719Z" fill="#436EAF"/>
<path d="M169.467 53.0417L153.222 53.2671C152.39 53.2783 151.707 52.5896 151.696 51.729C151.685 50.8676 152.35 50.1607 153.182 50.1495L169.427 49.9241L169.467 53.0417Z" fill="#446CF5"/>
<path d="M181.823 53.5176L169.744 53.6847C168.499 53.7023 167.477 52.671 167.46 51.3822L167.458 51.2572C167.441 49.9683 168.437 48.9097 169.682 48.8922L181.761 48.7251L181.823 53.5176Z" fill="#3E64D4"/>
<path d="M214.268 54.0343L183.067 54.4668C181.351 54.4906 179.942 53.0705 179.92 51.2944L179.918 51.1224C179.895 49.3464 181.266 47.8876 182.982 47.8644L214.183 47.432L214.268 54.0343Z" fill="#3555A6"/>
<path d="M219.469 50.8486C219.509 53.9641 217.975 56.511 216.042 56.5384C214.109 56.565 212.509 54.061 212.469 50.9462C212.429 47.8308 213.963 45.2839 215.896 45.2572C217.829 45.2291 219.429 47.7332 219.469 50.8486Z" fill="#263D6E"/>
<path d="M217.966 50.7609C217.991 52.7019 217.401 54.2842 216.647 54.2948C215.893 54.3053 215.261 52.7398 215.236 50.7988C215.211 48.8578 215.802 47.2755 216.556 47.2649C217.309 47.2544 217.941 48.8199 217.966 50.7609Z" fill="#F5F6FB"/>
<path d="M171.975 48.1453C171.975 48.1453 171.242 48.5763 170.916 49.7128C170.724 50.3839 170.05 50.8522 169.282 50.8325L164.172 50.7026C163.007 50.6732 162.216 49.5752 162.717 48.6268C163.028 48.0393 163.824 47.4061 164.635 46.8494L171.975 48.1453Z" fill="#DEAFA4"/>
<path d="M139.531 122.247C134.057 120.646 172.011 101.523 172.011 101.523C172.011 101.523 177.949 99.6018 181.413 103.188C184.877 106.775 183.2 116.509 183.2 116.509L175.462 157.028L165.084 154.822L169.768 118.545L154.446 128.678L139.531 122.247Z" fill="#3A4959"/>
<path d="M140.944 120.646C140.944 120.646 167.283 121.136 170.412 122.172C173.987 123.355 175.339 127.973 173.046 135.671C170.753 143.369 164.174 179.142 164.174 179.142L151.78 178.473L159.042 137.678C159.042 137.678 134.83 138.107 127.234 138.308C126.195 138.335 125.173 138.084 124.258 137.573C121.198 135.866 115.172 131.183 118.669 122.002L140.944 120.646Z" fill="#425266"/>
<path d="M164.316 183.136L167.483 187.006L175.116 189.694C175.903 189.971 176.501 190.641 176.705 191.474L177.001 192.68C177.148 193.28 176.671 193.846 176.077 193.779L151.013 190.827C150.198 190.733 149.626 189.948 149.765 189.11L152.38 181.925L156.094 183.216C157.326 183.77 158.728 183.749 159.945 183.159L161.365 182.469C162.381 181.976 163.59 182.249 164.316 183.136Z" fill="#282140"/>
<path d="M125.428 68.3937L124.449 68.6837C120.151 69.9557 116.984 73.5703 116.403 77.8665L116.344 125.685C138.99 124.919 145.55 116.142 145.55 116.142L147.083 77.3871C147.143 73.359 145.019 69.3351 140.654 68.5271L125.428 68.3937Z" fill="#4874B9"/>
<path d="M135.93 74.9497L128.061 76.8809V68.1263L135.93 74.9497Z" fill="#F1F1F1"/>
<path d="M135.93 74.9497L139.673 75.7641L136.255 68.087L135.93 74.9497Z" fill="#F1F1F1"/>
<path d="M109.674 125.501C107.07 126.619 105.833 129.711 106.912 132.408C107.992 135.105 110.978 136.385 113.582 135.267C116.187 134.149 117.423 131.057 116.344 128.361C115.265 125.664 112.279 124.384 109.674 125.501Z" fill="#DEAFA4"/>
<path d="M106.063 123.38L108.096 128.458C108.627 129.785 110.11 130.42 111.391 129.871C112.673 129.321 113.286 127.786 112.755 126.459L110.723 121.381C110.192 120.054 108.709 119.419 107.428 119.968C106.146 120.518 105.533 122.053 106.063 123.38Z" fill="#DEAFA4"/>
<path d="M105.173 126.849L114.17 123.707L105.806 98.0336L125.774 79.2263C127.69 77.3723 127.791 74.2618 126 72.2786C124.209 70.2955 121.889 69.2993 119.973 71.1533L97.0881 93.0143C95.728 94.3306 95.2365 96.3488 95.8317 98.1761L105.173 126.849Z" fill="#4874B9"/>
<path d="M129.56 54.6444L128.004 68.5412L135.93 74.9497L138.262 61.1316L129.56 54.6444Z" fill="#DEAFA4"/>
<path d="M139.856 64.5257L140.888 64.3748C145.579 63.6875 148.845 59.1919 148.18 54.3348L146.239 40.1375L128.218 42.7785L130.16 56.9757C130.823 61.8335 135.165 65.2137 139.856 64.5257Z" fill="#DEAFA4"/>
<path d="M130.533 52.954C130.533 52.954 134.099 49.2263 133.968 43.2291C133.968 43.2291 149.396 45.7304 149.296 39.1723C149.205 33.1267 143.577 32.8585 138.967 35.3639C136.535 36.6851 131.121 38.7679 127.989 39.8897C126.717 40.3453 125.623 41.2502 124.999 42.485C123.952 44.5545 123.377 47.856 127.751 50.7441L130.533 52.954Z" fill="#282140"/>
<path d="M127.009 41.4938L125.073 38.7483C125.073 38.7483 128.32 39.9529 128.269 41.154L127.009 41.4938Z" fill="#282140"/>
<path d="M127.009 41.4938C127.009 41.4938 127.356 38.1986 129.485 36.9701C129.485 36.9701 128.157 39.2341 128.905 40.5805L127.009 41.4938Z" fill="#282140"/>
<path d="M144.922 50.1923C144.958 50.749 145.435 51.1688 145.987 51.1301C146.54 51.0915 146.958 50.6093 146.922 50.0526C146.886 49.4959 146.409 49.0761 145.856 49.1147C145.304 49.1533 144.885 49.6363 144.922 50.1923Z" fill="#121932"/>
<path d="M138.186 50.6626C138.222 51.2193 138.7 51.6391 139.252 51.6005C139.805 51.5619 140.223 51.0796 140.186 50.5229C140.151 49.9662 139.673 49.5464 139.121 49.585C138.568 49.6237 138.15 50.1059 138.186 50.6626Z" fill="#121932"/>
<path d="M140.475 46.9539L136.548 47.2284" stroke="#121932" stroke-width="3.0204" stroke-miterlimit="10" stroke-linecap="round" stroke-linejoin="round"/>
<path d="M147.274 46.4794L144.728 46.657" stroke="#121932" stroke-width="3.0204" stroke-miterlimit="10" stroke-linecap="round" stroke-linejoin="round"/>
<path d="M143.039 50.9982L145.536 53.0606C145.835 53.307 145.717 53.797 145.338 53.8848L142.732 54.4927L143.039 50.9982Z" fill="#D09680"/>
<path d="M132.139 49.7816C132.139 49.7816 133.019 58.9217 138.184 56.9189C147.624 53.2579 148.254 55.9992 148.254 55.9992C148.254 55.9992 148.427 64.3046 140.888 65.0438C140.888 65.0438 135.436 66.5461 132.139 62.1803C132.139 62.1803 128.772 58.4611 129.484 49.7816H132.139Z" fill="#282140"/>
<path d="M124.757 53.8708C125.001 55.6496 126.591 56.888 128.309 56.6359C130.027 56.3839 131.223 54.7377 130.979 52.9589C130.736 51.18 129.146 49.9417 127.428 50.1937C125.709 50.445 124.514 52.0912 124.757 53.8708Z" fill="#DEAFA4"/>
<path d="M124.91 183.112H89.3528V186.239H124.91V183.112Z" fill="#689AD2"/>
<path d="M119.435 199.36H83.8773V202.488H119.435V199.36Z" fill="#689AD2"/>
<path d="M112.885 215.609H77.3265V218.736H112.885V215.609Z" fill="#689AD2"/>
<path d="M106.01 231.857H70.4529V234.984H106.01V231.857Z" fill="#689AD2"/>
<path d="M100.105 248.105H64.5475V251.232H100.105V248.105Z" fill="#689AD2"/>
<path d="M94.3076 264.354H58.7499V267.481H94.3076V264.354Z" fill="#689AD2"/>
<path d="M87.2185 280.601H51.6608V283.729H87.2185V280.601Z" fill="#689AD2"/>
<path d="M81.4202 296.85H45.8632V299.977H81.4202V296.85Z" fill="#689AD2"/>
<path d="M41.084 316.308H37.8391L91.6946 174.214H94.9395L41.084 316.308Z" fill="#74A4E4"/>
<path d="M76.641 316.308H73.3961L127.252 174.214H130.497L76.641 316.308Z" fill="#74A4E4"/>
</svg>
